<?xml version="1.0" encoding="UTF-8" standalone="no"?>
<!-- Created with Inkscape (http://www.inkscape.org/) -->

<svg
   width="16"
   height="16"
   viewBox="0 0 4.2333333 4.2333332"
   version="1.1"
   id="svg1"
   inkscape:version="1.4.3 (0d15f75, 2025-12-25)"
   sodipodi:docname="tile8.svg"
   xmlns:inkscape="http://www.inkscape.org/namespaces/inkscape"
   xmlns:sodipodi="http://sodipodi.sourceforge.net/DTD/sodipodi-0.dtd"
   xmlns="http://www.w3.org/2000/svg"
   xmlns:svg="http://www.w3.org/2000/svg">
  <sodipodi:namedview
     id="namedview1"
     pagecolor="#ffffff"
     bordercolor="#000000"
     borderopacity="0.25"
     inkscape:showpageshadow="2"
     inkscape:pageopacity="0.0"
     inkscape:pagecheckerboard="0"
     inkscape:deskcolor="#d1d1d1"
     inkscape:document-units="px"
     inkscape:zoom="22.112203"
     inkscape:cx="-0.33917922"
     inkscape:cy="14.222915"
     inkscape:window-width="1920"
     inkscape:window-height="991"
     inkscape:window-x="-9"
     inkscape:window-y="-9"
     inkscape:window-maximized="1"
     inkscape:current-layer="layer2" />
  <defs
     id="defs1" />
  <g
     inkscape:label="tile"
     inkscape:groupmode="layer"
     id="layer1">
    <rect
       style="fill:#808080;stroke-width:0.273707"
       id="rect1"
       width="4.2333331"
       height="4.2333331"
       x="0"
       y="1.7347235e-18" />
    <rect
       style="fill:#c0c0c0;stroke-width:0.264583;fill-opacity:1"
       id="rect2"
       width="3.96875"
       height="3.96875"
       x="0.26458332"
       y="0.26458332" />
  </g>
  <g
     inkscape:groupmode="layer"
     id="layer2"
     inkscape:label="number">
    <path
       id="rect3"
       style="fill:#808080;fill-opacity:1;stroke-width:0.0909231"
       inkscape:label="number"
       d="M 1.3229166,0.79374998 C 1.0619189,0.79246041 0.79246041,1.1857498 0.79374998,1.4552083 0.79011383,1.9384625 0.95471279,1.9935464 1.0583333,2.1166666 0.95533232,2.2432474 0.78887476,2.29078 0.79374998,2.7781249 0.80515172,3.0687357 1.0746103,3.432412 1.3229166,3.4395833 h 1.5875 C 3.2879978,3.4593953 3.4424711,3.0686196 3.4395833,2.7781249 3.4402281,2.3549002 3.2853291,2.2345041 3.1749999,2.1166666 3.2890462,2.0012632 3.4381128,1.8805483 3.4395833,1.4552083 3.4535642,1.063067 3.1925665,0.79669085 2.9104166,0.79374998 Z M 1.8520833,2.38125 H 2.38125 c 0.4441961,0.00294 0.4357351,0.5177649 0,0.5291666 H 1.8520833 c -0.4568875,0.00129 -0.4653483,-0.5219953 0,-0.5291666 z m 0,-1.0583334 H 2.38125 c 0.4611179,0.00294 0.4611178,0.5135345 0,0.5291667 H 1.8413264 C 1.3886694,1.8449124 1.3994263,1.3216271 1.8520833,1.3229166 Z"
       sodipodi:nodetypes="ccccccccccccccccccccc" />
  </g>
</svg>
