<?xml version="1.0" encoding="UTF-8" standalone="no"?>
<!-- Created with Inkscape (http://www.inkscape.org/) -->

<svg
   width="16"
   height="16"
   viewBox="0 0 4.2333333 4.2333332"
   version="1.1"
   id="svg1"
   inkscape:version="1.4.3 (0d15f75, 2025-12-25)"
   sodipodi:docname="tile6.svg"
   xmlns:inkscape="http://www.inkscape.org/namespaces/inkscape"
   xmlns:sodipodi="http://sodipodi.sourceforge.net/DTD/sodipodi-0.dtd"
   xmlns="http://www.w3.org/2000/svg"
   xmlns:svg="http://www.w3.org/2000/svg">
  <sodipodi:namedview
     id="namedview1"
     pagecolor="#ffffff"
     bordercolor="#000000"
     borderopacity="0.25"
     inkscape:showpageshadow="2"
     inkscape:pageopacity="0.0"
     inkscape:pagecheckerboard="0"
     inkscape:deskcolor="#d1d1d1"
     inkscape:document-units="px"
     inkscape:zoom="62.542756"
     inkscape:cx="5.7160896"
     inkscape:cy="8.2103833"
     inkscape:window-width="1920"
     inkscape:window-height="991"
     inkscape:window-x="-9"
     inkscape:window-y="1341"
     inkscape:window-maximized="1"
     inkscape:current-layer="layer2" />
  <defs
     id="defs1" />
  <g
     inkscape:label="tile"
     inkscape:groupmode="layer"
     id="layer1">
    <rect
       style="fill:#808080;stroke-width:0.273707"
       id="rect1"
       width="4.2333331"
       height="4.2333331"
       x="0"
       y="1.7347235e-18" />
    <rect
       style="fill:#c0c0c0;stroke-width:0.264583;fill-opacity:1"
       id="rect2"
       width="3.96875"
       height="3.96875"
       x="0.26458332"
       y="0.26458332" />
  </g>
  <g
     inkscape:groupmode="layer"
     id="layer2"
     inkscape:label="number">
    <path
       id="rect3"
       style="fill:#008080;fill-opacity:1;stroke-width:0.0909231"
       inkscape:label="number"
       d="M 1.3229166,0.79374998 C 1.0619189,0.79246041 0.79246041,1.0534581 0.79374998,1.3229166 v 1.5875 C 0.80515172,3.2010274 1.0746103,3.432412 1.3229166,3.4395833 h 1.5875 c 0.3775812,0.019812 0.5320545,-0.238672 0.5291667,-0.5291667 0.00275,-0.1475976 -0.00117,-0.3966445 0,-0.5291666 C 3.4418723,2.1222486 3.1977551,1.8532804 2.9104166,1.8520833 H 1.8520833 c -0.3257438,-0.015632 -0.3426656,-0.5262258 0,-0.5291667 H 3.1749999 V 0.79374998 Z M 1.8520833,2.38125 h 0.6614583 c 0.3511265,-0.00975 0.3511264,0.5177649 0,0.5291666 H 1.8520833 c -0.3511265,0.00129 -0.346896,-0.5262257 0,-0.5291666 z"
       sodipodi:nodetypes="cccccccccccccccccc" />
  </g>
</svg>
